<?xml version="1.0" encoding="utf-8"?>
<!-- Generator: Adobe Illustrator 16.0.0, SVG Export Plug-In . SVG Version: 6.00 Build 0)  -->
<!DOCTYPE svg PUBLIC "-//W3C//DTD SVG 1.1//EN" "http://www.w3.org/Graphics/SVG/1.1/DTD/svg11.dtd">
<svg version="1.1" id="Layer_1" xmlns="http://www.w3.org/2000/svg" xmlns:xlink="http://www.w3.org/1999/xlink" x="0px" y="0px"
	 width="566.93px" height="566.93px" viewBox="0 0 566.93 566.93" enable-background="new 0 0 566.93 566.93" xml:space="preserve">
<rect x="72.666" y="237.334" fill="#FFFFFF" width="54.667" height="70"/>
<rect x="393.666" y="237.322" fill="#FFFFFF" width="54.667" height="70"/>
<path fill="#070909" d="M232.796,292.021v33.623c0,0,27.699,16.904,59.333-0.85c27.834-15.623,28.667-48.227,28.667-48.227
	l-59.5,31.584L232.796,292.021z"/>
<path fill="#114B84" d="M320.796,274.699l-28.333,14.772v-65.546c0,0,11.5,4.416,21.166,21.566
	C322.981,262.086,320.796,274.699,320.796,274.699z"/>
<path fill="#114B84" d="M230.962,258.907v65.207c0,0-10.444-3.832-22.167-22.621c-7.5-12.021-5.667-26.963-5.667-26.963
	L230.962,258.907z"/>
<path fill="#070909" d="M202.932,272.322l59.031-32.094l28.333,16.047v-33.708c0,0-30.184-17.338-58.667,1.358
	C200.796,244.166,202.932,272.322,202.932,272.322z"/>
<text transform="matrix(0.8465 0 0 1 81.9644 295.4092)" font-family="'CharlemagneStd-Bold'" font-size="66.945">EXP</text>
<text transform="matrix(0.8465 0 0 1 325.2969 295.4092)" font-family="'CharlemagneStd-Bold'" font-size="66.945">SURE</text>
<text transform="matrix(1.0259 0 0 1 244.5977 291.5117)" font-family="'CharlemagneStd-Bold'" font-size="51.0509">4</text>
<rect fill="none" stroke="#000000" stroke-miterlimit="10" width="566.93" height="566.93"/>
</svg>
