<svg width="405" height="118" viewBox="0 0 405 118" fill="none" xmlns="http://www.w3.org/2000/svg">
<path d="M151.796 77.021V110.644C151.796 110.644 179.495 127.548 211.129 109.794C238.963 94.171 239.796 61.567 239.796 61.567L180.296 93.151L151.796 77.021Z" fill="#070909"/>
<path d="M239.796 59.699L211.463 74.471V8.92499C211.463 8.92499 222.963 13.341 232.629 30.491C241.981 47.086 239.796 59.699 239.796 59.699Z" fill="#114B84"/>
<path d="M149.962 43.907V109.114C149.962 109.114 139.518 105.282 127.795 86.493C120.295 74.472 122.128 59.53 122.128 59.53L149.962 43.907Z" fill="#114B84"/>
<path d="M121.932 57.322L180.963 25.228L209.296 41.275V7.56698C209.296 7.56698 179.112 -9.77101 150.629 8.92499C119.796 29.166 121.932 57.322 121.932 57.322Z" fill="#070909"/>
<path d="M36.7251 70.3322V75.4642H11.5226V70.3322H36.7251ZM12.7975 27.8705V75.4642H6.48869V27.8705H12.7975ZM33.3909 48.3332V53.4652H11.5226V48.3332H33.3909ZM36.3982 27.8705V33.0352H11.5226V27.8705H36.3982ZM48.6235 27.8705L60.0643 46.1104L71.5051 27.8705H78.8599L63.8234 51.4385L79.2195 75.4642H71.7993L60.0643 56.8647L48.3293 75.4642H40.9091L56.3052 51.4385L41.2687 27.8705H48.6235ZM104.062 56.7994H91.3467V51.6673H104.062C106.525 51.6673 108.519 51.2751 110.044 50.4906C111.57 49.7061 112.681 48.6165 113.378 47.2218C114.098 45.8271 114.457 44.2363 114.457 42.4493C114.457 40.8149 114.098 39.2786 113.378 37.8403C112.681 36.4021 111.57 35.2471 110.044 34.3754C108.519 33.4819 106.525 33.0352 104.062 33.0352H92.8177V75.4642H86.5089V27.8705H104.062C107.658 27.8705 110.698 28.4916 113.182 29.7337C115.667 30.9759 117.552 32.6974 118.837 34.8984C120.123 37.0776 120.766 39.5728 120.766 42.384C120.766 45.4348 120.123 48.039 118.837 50.1964C117.552 52.3538 115.667 53.9991 113.182 55.1323C110.698 56.2437 107.658 56.7994 104.062 56.7994Z" fill="black"/>
<path d="M275.187 63.435C275.187 62.3236 275.013 61.343 274.664 60.4931C274.337 59.6214 273.749 58.8369 272.899 58.1396C272.071 57.4422 270.916 56.7776 269.434 56.1456C267.974 55.5136 266.122 54.8708 263.877 54.217C261.523 53.5197 259.399 52.7461 257.503 51.8962C255.607 51.0245 253.983 50.0329 252.632 48.9216C251.281 47.8102 250.246 46.5353 249.527 45.0971C248.808 43.6588 248.448 42.0135 248.448 40.1612C248.448 38.3089 248.83 36.5982 249.592 35.0292C250.355 33.4601 251.445 32.0981 252.861 30.9432C254.299 29.7664 256.01 28.8511 257.993 28.1974C259.976 27.5436 262.188 27.2167 264.629 27.2167C268.203 27.2167 271.232 27.9032 273.716 29.2761C276.222 30.6272 278.129 32.4032 279.436 34.6042C280.744 36.7834 281.398 39.1152 281.398 41.5994H275.122C275.122 39.8125 274.74 38.2326 273.978 36.8597C273.215 35.465 272.06 34.3754 270.513 33.5909C268.965 32.7846 267.004 32.3814 264.629 32.3814C262.384 32.3814 260.532 32.7192 259.072 33.3948C257.612 34.0703 256.522 34.9856 255.803 36.1406C255.106 37.2955 254.757 38.6139 254.757 40.0958C254.757 41.0982 254.964 42.0135 255.378 42.8416C255.814 43.6479 256.479 44.3997 257.372 45.0971C258.287 45.7944 259.442 46.4373 260.837 47.0257C262.254 47.614 263.942 48.1806 265.904 48.7254C268.606 49.4881 270.938 50.338 272.899 51.2751C274.86 52.2121 276.473 53.2691 277.737 54.4458C279.022 55.6008 279.97 56.9192 280.581 58.4011C281.213 59.8611 281.529 61.5173 281.529 63.3696C281.529 65.3091 281.136 67.0634 280.352 68.6324C279.567 70.2014 278.445 71.5416 276.985 72.653C275.525 73.7644 273.771 74.6252 271.722 75.2354C269.695 75.8238 267.429 76.118 264.923 76.118C262.722 76.118 260.554 75.8129 258.418 75.2027C256.304 74.5925 254.376 73.6773 252.632 72.4569C250.911 71.2366 249.527 69.7329 248.481 67.946C247.457 66.1372 246.945 64.0452 246.945 61.6699H253.221C253.221 63.3043 253.537 64.7099 254.169 65.8866C254.801 67.0416 255.661 68.0004 256.751 68.7632C257.862 69.5259 259.115 70.0925 260.51 70.4629C261.927 70.8116 263.398 70.9859 264.923 70.9859C267.124 70.9859 268.987 70.6809 270.513 70.0707C272.038 69.4605 273.193 68.5888 273.978 67.4556C274.784 66.3225 275.187 64.9823 275.187 63.435ZM316.799 27.8705H323.075V60.0682C323.075 63.642 322.28 66.6167 320.689 68.992C319.098 71.3673 316.984 73.1543 314.347 74.3528C311.732 75.5296 308.888 76.118 305.816 76.118C302.59 76.118 299.67 75.5296 297.055 74.3528C294.462 73.1543 292.403 71.3673 290.877 68.992C289.374 66.6167 288.622 63.642 288.622 60.0682V27.8705H294.865V60.0682C294.865 62.5524 295.323 64.6009 296.238 66.2135C297.153 67.8261 298.428 69.0247 300.063 69.8092C301.719 70.5937 303.636 70.9859 305.816 70.9859C308.017 70.9859 309.934 70.5937 311.569 69.8092C313.225 69.0247 314.511 67.8261 315.426 66.2135C316.341 64.6009 316.799 62.5524 316.799 60.0682V27.8705ZM332.979 27.8705H348.735C352.309 27.8705 355.327 28.4153 357.79 29.5049C360.274 30.5945 362.159 32.2071 363.445 34.3427C364.752 36.4565 365.406 39.0607 365.406 42.1551C365.406 44.3343 364.959 46.3283 364.066 48.137C363.194 49.924 361.93 51.4494 360.274 52.7134C358.639 53.9555 356.678 54.8817 354.39 55.4918L352.625 56.1783H337.817L337.752 51.0463H348.931C351.198 51.0463 353.083 50.654 354.586 49.8695C356.09 49.0632 357.223 47.9845 357.986 46.6334C358.748 45.2823 359.13 43.7895 359.13 42.1551C359.13 40.3246 358.77 38.7229 358.051 37.35C357.332 35.9771 356.199 34.9202 354.652 34.1793C353.126 33.4166 351.154 33.0352 348.735 33.0352H339.288V75.4642H332.979V27.8705ZM360.797 75.4642L349.225 53.8901L355.796 53.8574L367.531 75.0719V75.4642H360.797ZM404.468 70.3322V75.4642H379.266V70.3322H404.468ZM380.54 27.8705V75.4642H374.232V27.8705H380.54ZM401.134 48.3332V53.4652H379.266V48.3332H401.134ZM404.141 27.8705V33.0352H379.266V27.8705H404.141Z" fill="black"/>
<path d="M191.142 60.2465V64.0354H164.919V61.3184L181.171 36.1668H184.935L180.897 43.4456L170.154 60.2465H191.142ZM186.082 36.1668V72.4608H181.471V36.1668H186.082Z" fill="black"/>
</svg>
