<svg width="119" height="118" viewBox="0 0 119 118" fill="none" xmlns="http://www.w3.org/2000/svg">
<path d="M29.8956 76.7726V110.396C29.8956 110.396 57.5946 127.3 89.2286 109.546C117.063 93.9227 117.896 61.3186 117.896 61.3186L58.3956 92.9026L29.8956 76.7726Z" fill="#070909"/>
<path d="M117.896 59.4506L89.5626 74.2226V8.67664C89.5626 8.67664 101.063 13.0926 110.729 30.2426C120.081 46.8376 117.896 59.4506 117.896 59.4506Z" fill="#114B84"/>
<path d="M28.0616 43.6587V108.866C28.0616 108.866 17.6176 105.034 5.89461 86.2447C-1.60539 74.2237 0.227615 59.2816 0.227615 59.2816L28.0616 43.6587Z" fill="#114B84"/>
<path d="M0.0316323 57.0736L59.0626 24.9796L87.3956 41.0266V7.31863C87.3956 7.31863 57.2116 -10.0194 28.7286 8.67663C-2.10438 28.9176 0.0316323 57.0736 0.0316323 57.0736Z" fill="#070909"/>
<path d="M69.5963 60.841V64.6787H43.0355V61.9266L59.4971 36.4515H63.3096L59.2194 43.8239L48.3375 60.841H69.5963ZM64.471 36.4515V73.2125H59.8001V36.4515H64.471Z" fill="black"/>
</svg>
